<svg width="21" height="21" viewBox="0 0 21 21" fill="none" xmlns="http://www.w3.org/2000/svg">
<g clip-path="url(#clip0)">
<path d="M21 10.5002C21 4.70118 16.299 0.000177383 10.5 0.000177383C4.70101 0.000177383 0 4.70118 0 10.5002C0 15.741 3.8397 20.0849 8.85938 20.8726V13.5353H6.19336V10.5002H8.85938V8.1869C8.85938 5.55533 10.427 4.10174 12.8254 4.10174C13.9742 4.10174 15.1758 4.30682 15.1758 4.30682V6.8908H13.8518C12.5474 6.8908 12.1406 7.70018 12.1406 8.53055V10.5002H15.0527L14.5872 13.5353H12.1406V20.8726C17.1603 20.0849 21 15.741 21 10.5002Z" fill="#1877F2"/>
<path d="M14.5872 13.5353L15.0527 10.5002H12.1406V8.53055C12.1406 7.70019 12.5474 6.89081 13.8518 6.89081H15.1758V4.30683C15.1758 4.30683 13.9742 4.10175 12.8254 4.10175C10.4269 4.10175 8.85937 5.55534 8.85937 8.1869V10.5002H6.19336V13.5353H8.85937V20.8726C9.39395 20.9565 9.94186 21.0002 10.5 21.0002C11.0581 21.0002 11.606 20.9565 12.1406 20.8726V13.5353H14.5872Z" fill="white"/>
</g>
<defs>
<clipPath id="clip0">
<rect width="21" height="21" fill="white"/>
</clipPath>
</defs>
</svg>
